<?xml version="1.0" standalone="no"?>
<!DOCTYPE svg PUBLIC "-//W3C//DTD SVG 20010904//EN"
 "http://www.w3.org/TR/2001/REC-SVG-20010904/DTD/svg10.dtd">
<svg version="1.0" xmlns="http://www.w3.org/2000/svg"
 width="320.000000pt" height="320.000000pt" viewBox="0 0 320.000000 320.000000"
 preserveAspectRatio="xMidYMid meet">
<metadata>
Created by potrace 1.16, written by Peter Selinger 2001-2019
</metadata>
<g transform="translate(0.000000,320.000000) scale(0.100000,-0.100000)"
fill="#36c1d0" stroke="none">
<path d="M1571 2999 c-164 -18 -246 -45 -341 -114 -25 -18 -88 -51 -140 -74
-108 -46 -146 -82 -155 -145 -7 -46 12 -110 50 -167 13 -20 44 -76 70 -125 25
-49 53 -101 62 -115 21 -34 12 -56 -32 -75 -19 -8 -35 -17 -35 -21 0 -4 21
-28 46 -54 53 -54 51 -71 -11 -109 -48 -30 -49 -73 -2 -117 42 -40 68 -53 109
-53 76 -1 72 -30 -11 -76 -25 -14 -63 -47 -83 -74 -28 -36 -60 -59 -125 -94
-99 -52 -112 -61 -136 -96 -37 -54 -10 -125 89 -230 173 -183 405 -283 729
-312 142 -13 304 -3 442 26 73 15 81 20 63 41 -10 12 -36 15 -125 15 -142 0
-233 22 -373 92 -195 97 -303 227 -310 373 -5 91 23 148 89 183 38 20 55 23
124 20 66 -3 92 -9 145 -36 78 -39 105 -40 198 -7 39 14 80 25 89 25 21 0 118
44 126 57 3 5 -24 3 -61 -5 -96 -20 -226 -11 -297 21 -117 54 -113 151 14 321
66 89 66 103 -1 189 -57 72 -38 132 63 197 108 70 221 92 261 53 17 -17 18
-26 10 -55 -12 -43 3 -81 48 -123 17 -16 43 -52 57 -80 14 -27 34 -61 44 -74
24 -30 24 -53 1 -74 -26 -24 -62 -22 -62 3 0 25 -7 25 -49 -1 -35 -21 -37 -38
-2 -20 16 9 27 8 48 -2 30 -15 48 -13 76 11 18 16 24 77 8 86 -4 3 -23 36 -40
73 -18 37 -48 84 -67 105 -50 55 -52 79 -15 139 17 28 31 64 31 80 0 37 -50
146 -87 189 -15 18 -50 69 -78 113 -29 47 -63 88 -80 98 -38 21 -250 31 -374
18z"/>
<path d="M997 750 c-203 -25 -358 -125 -438 -281 -23 -45 -49 -142 -49 -181 0
-27 2 -28 53 -28 l53 0 23 70 c45 142 132 209 282 218 129 7 246 -22 444 -111
290 -130 376 -158 543 -177 224 -26 445 37 573 163 73 72 113 159 117 260 l4
77 -50 0 -51 0 -16 -57 c-49 -170 -144 -243 -313 -243 -103 0 -228 34 -422
116 -230 98 -356 144 -429 160 -87 18 -240 25 -324 14z"/>
</g>
</svg>
